<?xml version="1.0" encoding="UTF-8" standalone="no"?>
<svg
   xmlns:dc="http://purl.org/dc/elements/1.1/"
   xmlns:cc="http://creativecommons.org/ns#"
   xmlns:rdf="http://www.w3.org/1999/02/22-rdf-syntax-ns#"
   xmlns:svg="http://www.w3.org/2000/svg"
   xmlns="http://www.w3.org/2000/svg"
   xmlns:xlink="http://www.w3.org/1999/xlink"
   id="svg94"
   version="1.1"
   viewBox="0 0 1199 891"
   height="891pt"
   width="1199pt">
  <metadata
     id="metadata98">
    <rdf:RDF>
      <cc:Work
         rdf:about="">
        <dc:format>image/svg+xml</dc:format>
        <dc:type
           rdf:resource="http://purl.org/dc/dcmitype/StillImage" />
      </cc:Work>
    </rdf:RDF>
  </metadata>
  <defs
     id="defs27">
    <filter
       height="100%"
       width="100%"
       y="0%"
       x="0%"
       filterUnits="objectBoundingBox"
       id="alpha">
      <feColorMatrix
         id="feColorMatrix2"
         values="0 0 0 0 1 0 0 0 0 1 0 0 0 0 1 0 0 0 1 0"
         in="SourceGraphic"
         type="matrix" />
    </filter>
    <mask
       id="mask0">
      <g
         id="g7"
         filter="url(#alpha)">
        <rect
           id="rect5"
           style="fill:rgb(0%,0%,0%);fill-opacity:0.8;stroke:none;"
           height="891"
           width="1199"
           y="0"
           x="0" />
      </g>
    </mask>
    <clipPath
       id="clip1">
      <rect
         id="rect10"
         height="891"
         width="1199"
         y="0"
         x="0" />
    </clipPath>
    <g
       clip-path="url(#clip1)"
       id="surface5">
      <path
         id="path13"
         transform="matrix(1.018692,0,0,1.019451,-11.915554,-13.263809)"
         d="M 1002.865713 620.794331 C 1002.865713 620.794331 729.667534 463.973528 612.049593 493.684684 C 612.049593 493.684684 362.783001 520.510556 333.897142 579.526707 C 333.897142 579.526707 254.65947 331.909467 225.769777 323.655942 "
         style="fill:none;stroke-width:2;stroke-linecap:butt;stroke-linejoin:miter;stroke:rgb(42.352941%,38.823529%,100%);stroke-opacity:1;stroke-miterlimit:10;" />
    </g>
    <mask
       id="mask1">
      <g
         id="g18"
         filter="url(#alpha)">
        <rect
           id="rect16"
           style="fill:rgb(0%,0%,0%);fill-opacity:0.8;stroke:none;"
           height="891"
           width="1199"
           y="0"
           x="0" />
      </g>
    </mask>
    <clipPath
       id="clip2">
      <rect
         id="rect21"
         height="891"
         width="1199"
         y="0"
         x="0" />
    </clipPath>
    <g
       clip-path="url(#clip2)"
       id="surface8">
      <path
         id="path24"
         transform="matrix(1.018692,0,0,1.019451,-11.915554,-13.263809)"
         d="M 333.897142 579.526707 C 379.704983 457.367642 792.393523 322.008302 792.393523 322.008302 C 733.793537 336.863881 612.049593 493.684684 612.049593 493.684684 C 612.049593 493.684684 354.530994 306.325073 225.769777 323.655942 C 225.769777 323.655942 792.807657 342.228289 1002.865713 620.794331 "
         style="fill:none;stroke-width:2;stroke-linecap:butt;stroke-linejoin:miter;stroke:rgb(42.352941%,38.823529%,100%);stroke-opacity:1;stroke-miterlimit:10;" />
    </g>
  </defs>
  <g
     id="surface1">
    <path
       id="path29"
       d="M 1104.226562 216.585938 C 968.1875 27.140625 680.8125 -49.707031 398.191406 33.058594 C 248.773438 76.8125 104.710938 164.484375 33.316406 334.246094 C -94.308594 637.710938 173.65625 734.628906 348.875 765.519531 C 433.605469 780.457031 513.402344 805.546875 586.324219 839.707031 C 717.511719 901.164062 949.730469 955.621094 1124.835938 699.625 C 1251.753906 514.078125 1194.84375 342.773438 1104.226562 216.585938 Z M 1104.226562 216.585938 "
       style=" stroke:none;fill-rule:nonzero;fill:rgb(94.901961%,94.901961%,94.901961%);fill-opacity:1;" />
    <path
       id="path31"
       d="M 315.519531 254.066406 C 315.140625 251.054688 314.371094 248.105469 313.230469 245.292969 C 312.9375 244.21875 312.207031 243.316406 311.214844 242.808594 C 310.558594 242.636719 309.871094 242.628906 309.214844 242.785156 L 298.9375 244.359375 C 298.078125 244.398438 297.253906 244.71875 296.59375 245.269531 C 295.253906 246.679688 296.574219 248.945312 296.53125 250.890625 C 296.484375 253.074219 294.546875 254.847656 292.441406 255.433594 C 290.292969 255.871094 288.078125 255.84375 285.941406 255.355469 L 271.574219 253.121094 C 275.804688 251.769531 279.570312 249.253906 282.445312 245.859375 C 284.335938 243.621094 285.339844 239.433594 282.609375 238.371094 C 281.796875 238.148438 280.949219 238.082031 280.113281 238.171875 C 273.601562 238.222656 268.480469 232.78125 262.386719 230.492188 C 254.382812 227.679688 245.480469 230.335938 240.324219 237.074219 L 247.980469 237.441406 C 248.699219 237.402344 249.414062 237.59375 250.019531 237.988281 C 251.695312 239.367188 249.609375 242.015625 249.847656 244.175781 C 250.152344 246.980469 253.878906 247.582031 256.683594 247.863281 C 259.488281 248.148438 263.050781 250.429688 261.699219 252.90625 C 247.59375 257.769531 233.242188 243.402344 218.425781 245.171875 C 214.679688 245.621094 211.136719 247.09375 207.476562 248.019531 C 185.117188 253.683594 162 238.574219 139.15625 241.773438 C 134.078125 242.640625 129.085938 243.957031 124.242188 245.710938 C 121.132812 246.734375 117.890625 247.835938 115.628906 250.207031 C 113.371094 252.574219 112.511719 256.628906 114.652344 259.105469 C 108.753906 259.589844 102.816406 259.027344 97.113281 257.4375 C 100.253906 259.183594 102.191406 262.507812 102.164062 266.101562 C 92.957031 267.605469 83.992188 270.339844 75.507812 274.234375 C 77.09375 276.871094 78.941406 279.335938 81.027344 281.589844 L 69.367188 289.085938 C 73.304688 290.082031 75.34375 295.457031 73.050781 298.8125 C 77.136719 296.992188 79.667969 292.289062 84.035156 291.335938 C 86.898438 290.710938 89.808594 291.882812 92.523438 292.984375 C 95.238281 294.082031 98.21875 295.152344 101.03125 294.324219 C 103.839844 293.5 105.914062 289.851562 104.128906 287.53125 C 116.136719 284.023438 128.550781 282.082031 141.058594 281.753906 C 142.023438 281.632812 143 281.820312 143.855469 282.285156 C 145.484375 283.417969 145.054688 285.859375 144.96875 287.839844 C 144.878906 289.820312 146.421875 292.425781 148.191406 291.53125 C 146.109375 293.339844 147.890625 296.738281 149.886719 298.636719 C 151.882812 300.539062 154.289062 303.160156 153.066406 305.628906 C 152.75 306.273438 152.207031 306.789062 151.902344 307.441406 C 150.996094 309.363281 152.433594 311.601562 154.128906 312.878906 C 155.828125 314.152344 157.90625 315.042969 159.085938 316.808594 C 160.265625 318.578125 159.730469 321.667969 157.621094 321.914062 L 151.628906 314.300781 C 149.582031 316.425781 148.179688 319.085938 147.582031 321.976562 C 153.933594 327.175781 154.890625 337.757812 149.570312 344.011719 C 146.851562 347.207031 142.988281 349.148438 139.613281 351.644531 C 136.238281 354.136719 133.117188 357.6875 133.125 361.882812 C 133.140625 369.136719 132.546875 375.871094 135.261719 382.59375 C 140.269531 394.992188 146.050781 407.0625 152.570312 418.730469 C 154.28125 421.796875 156.496094 425.15625 159.964844 425.683594 C 155.582031 415.003906 151.632812 404.15625 148.125 393.144531 C 150.410156 393.152344 153.050781 393.335938 154.390625 395.1875 C 155.5 396.722656 155.261719 398.808594 155.605469 400.671875 C 156.046875 402.476562 156.777344 404.195312 157.769531 405.761719 L 178.703125 443.078125 C 180.441406 446.171875 182.429688 449.492188 185.746094 450.746094 C 187.867188 451.546875 190.320312 451.394531 192.273438 452.550781 C 193.804688 453.453125 194.832031 455.058594 196.394531 455.910156 C 200.800781 458.316406 206.933594 453.699219 211.054688 456.574219 C 212.234375 457.394531 212.984375 458.703125 214.070312 459.640625 C 217.875 462.941406 224.121094 460.734375 228.511719 463.195312 C 231.34375 464.78125 232.8125 467.953125 234.324219 470.828125 C 238.105469 478.027344 244.226562 485.078125 252.335938 485.652344 C 254.882812 485.832031 257.484375 485.347656 259.972656 485.917969 C 262.464844 486.484375 264.914062 488.65625 264.515625 491.179688 C 263.828125 495.507812 265.964844 500.246094 265.390625 504.585938 C 264.347656 512.5 253.136719 515.972656 252.171875 523.894531 C 251.960938 525.628906 252.292969 527.417969 251.878906 529.117188 C 251.371094 531.199219 249.8125 532.890625 249.257812 534.960938 C 248.207031 538.878906 251.011719 542.777344 254.09375 545.414062 C 257.175781 548.050781 260.851562 550.324219 262.535156 554.015625 C 264.316406 557.917969 263.441406 562.464844 264.023438 566.714844 C 265.285156 575.992188 273.292969 582.871094 281.535156 587.304688 C 284.046875 588.65625 286.742188 589.964844 288.367188 592.308594 C 290.488281 595.367188 290.277344 599.402344 290.984375 603.054688 C 292.71875 612.007812 300.25 619.382812 300.460938 628.5 C 300.613281 634.980469 297.015625 640.859375 294.867188 646.972656 C 290.785156 658.828125 292.070312 671.871094 298.378906 682.699219 C 299.988281 685.417969 301.914062 687.980469 303.050781 690.925781 C 305.082031 696.183594 304.421875 702.164062 306.292969 707.480469 C 308.769531 714.507812 315.570312 720.3125 314.917969 727.738281 C 318.007812 734.152344 324.824219 737.304688 331.679688 739.214844 L 343.96875 742.636719 C 346.320312 743.292969 348.777344 743.953125 351.175781 743.480469 C 353.570312 743.003906 355.855469 741.015625 355.792969 738.570312 C 349.769531 737.210938 343.550781 735.765625 338.582031 732.089844 C 333.617188 728.417969 330.214844 721.875 332.097656 715.988281 C 332.972656 713.257812 334.832031 710.105469 333.0625 707.851562 C 332.050781 706.558594 330.199219 706.222656 329.058594 705.042969 C 327.277344 703.207031 327.890625 700.117188 329.171875 697.902344 C 330.449219 695.6875 332.300781 693.707031 332.816406 691.199219 C 333.351562 688.324219 332.042969 685.425781 329.542969 683.921875 C 331.820312 683.0625 333.890625 681.730469 335.621094 680.015625 C 337.222656 678.1875 337.960938 675.371094 336.703125 673.292969 C 340.4375 673.765625 344.851562 674 347.300781 671.140625 C 349.261719 668.855469 349.125 665.441406 348.351562 662.53125 C 347.578125 659.625 346.269531 656.800781 346.230469 653.789062 C 354.847656 654.199219 363.484375 653.90625 372.058594 652.914062 C 370.816406 648.738281 368 645.207031 364.203125 643.074219 C 368.085938 642.414062 371.621094 637.765625 372.847656 634.019531 C 374.074219 630.277344 373.761719 626.199219 373.003906 622.332031 C 372.714844 621.335938 372.671875 620.285156 372.886719 619.269531 C 373.324219 617.875 374.695312 617.027344 375.960938 616.296875 L 395.226562 605.222656 C 396.378906 604.648438 397.421875 603.878906 398.308594 602.949219 C 400.328125 600.574219 400.027344 596.992188 398.996094 594.054688 C 397.960938 591.113281 396.304688 588.347656 395.90625 585.257812 C 394.71875 576.015625 404.605469 569.382812 407.941406 560.679688 C 409.25 557.265625 409.519531 553.554688 409.773438 549.902344 C 410.042969 545.984375 410.066406 541.433594 407.058594 538.90625 C 404.175781 536.488281 399.671875 537.027344 396.65625 534.773438 C 393.890625 532.710938 392.9375 528.699219 389.914062 527.03125 C 387.171875 525.519531 383.730469 526.480469 380.679688 525.769531 C 375.308594 524.515625 371.929688 518.320312 366.441406 517.746094 C 363.347656 517.421875 359.84375 518.9375 357.304688 517.132812 C 355.070312 515.542969 354.980469 512.347656 354.554688 509.636719 C 353.027344 501.003906 346.289062 494.242188 337.671875 492.683594 C 334.476562 492.171875 331.003906 492.367188 328.289062 490.609375 C 325.539062 488.832031 324.277344 485.507812 322.117188 483.042969 C 318.636719 479.078125 313.15625 477.667969 308.019531 476.460938 L 287.132812 471.546875 C 283.421875 470.671875 278.644531 470.210938 276.652344 473.460938 C 276.066406 474.699219 275.648438 476.011719 275.414062 477.363281 C 273.886719 482.375 269.300781 485.828125 264.0625 485.914062 C 262.3125 482.925781 259.476562 480.730469 256.144531 479.785156 C 254.027344 479.191406 251.757812 479.125 249.738281 478.257812 C 247.515625 477.171875 245.835938 475.21875 245.097656 472.855469 C 244.359375 470.492188 244.625 467.925781 245.835938 465.765625 C 248.3125 461.355469 247.527344 455.832031 243.921875 452.285156 C 240.367188 449.09375 235.230469 448.320312 230.46875 448.640625 C 229.21875 445.917969 231.304688 442.84375 233.554688 440.863281 C 235.800781 438.882812 238.53125 436.9375 239.019531 433.980469 C 239.789062 429.332031 233.859375 425.800781 229.359375 427.1875 C 224.859375 428.574219 221.984375 432.949219 220.085938 437.261719 C 218.996094 439.738281 218.070312 442.34375 216.351562 444.429688 C 214.632812 446.515625 211.863281 448.011719 209.246094 447.339844 C 205.539062 446.394531 204.105469 441.984375 203.285156 438.246094 C 202.183594 433.226562 201.078125 428.140625 201.308594 423.007812 C 201.539062 417.878906 203.269531 412.609375 207.050781 409.132812 C 213.210938 403.472656 222.664062 404.027344 230.980469 404.929688 C 229.015625 402.714844 229.5 398.984375 231.601562 396.898438 C 233.855469 394.894531 236.953125 394.132812 239.875 394.863281 C 242.382812 395.386719 244.640625 396.734375 246.285156 398.699219 C 248.648438 401.582031 249.320312 405.472656 251.105469 408.746094 C 252.890625 412.019531 256.910156 414.8125 260.195312 413.054688 C 263.035156 411.539062 263.484375 407.597656 262.777344 404.457031 C 262.074219 401.3125 260.570312 398.257812 260.828125 395.046875 C 261.316406 388.921875 267.660156 385.234375 273.261719 382.710938 C 278.863281 380.1875 285.273438 376.792969 286.160156 370.710938 C 286.191406 369.523438 286.417969 368.34375 286.828125 367.226562 C 287.445312 366.238281 288.308594 365.425781 289.332031 364.867188 C 305.675781 354.058594 322.292969 343.117188 340.972656 337.210938 C 341.945312 336.902344 342.058594 337.242188 343.050781 337.003906 C 344.4375 336.199219 343.515625 333.984375 342.1875 333.089844 C 340.859375 332.195312 339.082031 331.511719 338.746094 329.945312 C 338.496094 328.792969 339.175781 327.664062 339.351562 326.5 C 339.785156 323.636719 336.363281 320.996094 333.707031 322.140625 C 332.207031 320.148438 335.175781 317.839844 337.578125 317.175781 C 344.785156 315.191406 352.1875 313.980469 359.652344 313.570312 C 360.511719 313.433594 361.394531 313.582031 362.164062 313.996094 C 363.417969 314.867188 363.257812 316.859375 362.367188 318.101562 C 361.480469 319.339844 360.097656 320.121094 358.992188 321.167969 C 356.523438 323.574219 355.601562 327.152344 356.597656 330.453125 C 360.496094 332.4375 364.734375 334.476562 369.050781 333.777344 C 373.367188 333.082031 377.199219 328.226562 375.167969 324.351562 C 373.28125 320.742188 367.605469 319.925781 366.628906 315.96875 C 365.484375 311.335938 372.039062 307.21875 370.5625 302.679688 C 369.914062 300.695312 367.9375 299.523438 366.417969 298.089844 C 362.746094 294.488281 361.664062 289 363.691406 284.273438 C 358.675781 285.15625 353.539062 283.550781 349.917969 279.960938 C 346.621094 276.632812 343.996094 271.382812 339.316406 271.53125 C 335.023438 271.667969 331.324219 276.679688 327.308594 275.152344 C 326.320312 274.777344 325.28125 274.011719 324.324219 274.457031 C 323.6875 274.871094 323.277344 275.554688 323.207031 276.308594 C 322.1875 281.191406 323.945312 286.753906 321.285156 290.96875 C 318.390625 295.5625 311.699219 296.195312 308.191406 300.335938 C 306.289062 302.582031 305.550781 305.609375 303.800781 307.980469 C 302.050781 310.347656 298.335938 311.855469 296.238281 309.789062 C 298.363281 305.417969 297.1875 300.15625 293.40625 297.105469 C 291.457031 295.832031 289.355469 294.808594 287.148438 294.058594 C 284.6875 293.015625 282.34375 291.707031 280.160156 290.160156 C 279.066406 289.5 278.179688 288.550781 277.59375 287.414062 C 277.132812 285.992188 277.195312 284.449219 277.769531 283.070312 C 279.941406 276.839844 285.378906 272.328125 291.894531 271.351562 C 294.691406 270.96875 297.945312 271.105469 299.796875 268.972656 C 300.777344 267.84375 301.289062 266.140625 302.710938 265.679688 C 303.621094 265.496094 304.5625 265.613281 305.402344 266.011719 L 315.839844 269.6875 C 317.003906 270.214844 318.285156 270.425781 319.554688 270.304688 C 320.863281 270.128906 321.816406 268.972656 321.734375 267.652344 C 321.402344 265.917969 318.734375 265.085938 318.976562 263.335938 C 319.113281 262.769531 319.417969 262.257812 319.851562 261.867188 C 327.476562 253.742188 338.332031 249.453125 349.445312 250.171875 C 350.761719 252.335938 348.679688 254.902344 346.945312 256.75 C 345.214844 258.597656 343.820312 261.898438 345.917969 263.324219 C 346.777344 263.761719 347.730469 263.976562 348.695312 263.949219 C 351.265625 264.296875 353.761719 265.054688 356.09375 266.195312 C 359.699219 267.765625 363.234375 269.484375 366.703125 271.347656 C 366.398438 269.0625 366.105469 266.648438 366.972656 264.511719 C 367.839844 262.371094 370.300781 260.691406 372.453125 261.527344 C 374.527344 262.328125 375.589844 265.078125 377.800781 265.328125 C 380.746094 265.664062 381.910156 261.308594 380.679688 258.605469 C 379.449219 255.90625 377.011719 253.644531 376.808594 250.683594 C 376.667969 248.6875 377.429688 246.207031 375.835938 245 C 375.265625 244.636719 374.625 244.410156 373.953125 244.339844 L 334.140625 237.007812 C 331.773438 236.570312 328.359375 236.90625 328.253906 239.308594 C 328.195312 240.652344 329.394531 241.976562 328.863281 243.210938 C 328.296875 244.527344 326.4375 244.40625 325.082031 244.871094 C 322.980469 245.59375 321.925781 248.09375 322.128906 250.308594 C 322.496094 252.507812 323.347656 254.597656 324.621094 256.433594 C 322.03125 255.347656 318.109375 255.148438 315.519531 254.066406 Z M 315.519531 254.066406 "
       style=" stroke:none;fill-rule:nonzero;fill:rgb(24.705882%,23.921569%,33.72549%);fill-opacity:1;" />
    <path
       id="path33"
       d="M 283.753906 220.242188 C 278.609375 218.539062 272.953125 220.234375 269.589844 224.488281 C 268.933594 225.351562 268.386719 226.542969 268.933594 227.476562 C 269.71875 228.816406 271.726562 228.289062 273.203125 227.808594 C 275.375 227.03125 277.742188 226.976562 279.949219 227.648438 C 281.335938 228.125 282.578125 228.96875 283.972656 229.425781 C 285.355469 230.003906 286.945312 229.773438 288.101562 228.820312 C 289.058594 227.84375 289.121094 226.328125 289.121094 224.960938 C 289.257812 224.03125 288.964844 223.09375 288.332031 222.40625 C 287.773438 222.082031 287.144531 221.898438 286.5 221.867188 C 285.058594 221.597656 283.753906 220.835938 282.816406 219.710938 "
       style=" stroke:none;fill-rule:nonzero;fill:rgb(24.705882%,23.921569%,33.72549%);fill-opacity:1;" />
    <path
       id="path35"
       d="M 298.109375 216.242188 C 296.96875 216.179688 295.875 216.71875 295.226562 217.664062 C 294.578125 218.605469 294.46875 219.820312 294.941406 220.863281 C 296.664062 221.335938 298.46875 221.453125 300.238281 221.210938 C 302.046875 220.929688 303.507812 219.589844 303.945312 217.8125 C 301.859375 218.191406 299.707031 217.78125 297.90625 216.65625 "
       style=" stroke:none;fill-rule:nonzero;fill:rgb(24.705882%,23.921569%,33.72549%);fill-opacity:1;" />
    <path
       id="path37"
       d="M 346.277344 209.5625 C 341.582031 210.5625 337.019531 212.113281 332.683594 214.183594 C 336.878906 215.796875 339.527344 219.960938 339.207031 224.445312 C 339.023438 225.285156 339.046875 226.15625 339.269531 226.984375 C 339.769531 228.195312 341.214844 228.648438 342.488281 228.960938 C 344.769531 229.65625 347.15625 229.960938 349.542969 229.863281 C 351.96875 229.734375 354.164062 228.390625 355.382812 226.289062 C 355.730469 225.308594 356.136719 224.347656 356.597656 223.417969 C 359.648438 218.769531 368.703125 224.386719 371.972656 219.898438 C 373.128906 218.316406 373.023438 215.933594 374.523438 214.683594 C 375.300781 214.136719 376.203125 213.792969 377.144531 213.679688 C 383.726562 212.371094 390.375 211.425781 397.058594 210.84375 C 400.226562 210.566406 404.355469 209.429688 404.382812 206.246094 C 392.453125 203.902344 380.082031 205.566406 369.195312 210.984375 C 365.273438 212.949219 360.085938 217.085938 356.308594 214.480469 C 354.890625 213.503906 354.960938 210.875 353.015625 209.777344 C 351.023438 208.65625 348.390625 209.113281 346.277344 209.5625 Z M 346.277344 209.5625 "
       style=" stroke:none;fill-rule:nonzero;fill:rgb(24.705882%,23.921569%,33.72549%);fill-opacity:1;" />
    <path
       id="path39"
       d="M 385.292969 216.863281 L 390.890625 217.941406 C 388.804688 217.847656 386.78125 218.65625 385.335938 220.164062 C 383.890625 221.671875 383.164062 223.726562 383.339844 225.808594 C 388.585938 227.5625 394.300781 225.855469 399.824219 226.089844 C 405.351562 226.324219 411.777344 230.273438 410.835938 235.722656 C 410.550781 237.375 409.597656 239.019531 410.09375 240.617188 C 410.441406 241.738281 411.425781 242.535156 411.984375 243.566406 C 413.144531 245.714844 412.21875 248.433594 410.75 250.386719 C 409.285156 252.34375 407.3125 253.902344 406.027344 255.976562 C 402.828125 261.144531 404.644531 267.820312 406.550781 273.589844 C 407.101562 275.773438 408.121094 277.804688 409.535156 279.554688 C 412.359375 282.558594 416.964844 282.820312 421.085938 282.882812 C 424.085938 282.925781 427.523438 282.777344 429.421875 280.449219 C 431.898438 277.414062 430.167969 272.671875 431.796875 269.109375 C 433.277344 265.871094 437.050781 264.484375 440.472656 263.496094 C 446.734375 261.691406 453.121094 260.160156 459.042969 257.433594 C 466.394531 254.046875 473.265625 248.773438 481.351562 248.335938 C 483.617188 248.214844 485.941406 248.484375 488.125 247.859375 C 490.308594 247.238281 492.382812 245.347656 492.21875 243.082031 C 492.078125 241.144531 490.441406 239.722656 489.160156 238.265625 C 487.882812 236.804688 486.878906 234.558594 488.054688 233.015625 L 509.238281 229.054688 C 507.738281 224.960938 506.566406 219.566406 510.015625 216.898438 C 511.261719 215.9375 512.929688 215.554688 513.988281 214.390625 C 515.796875 212.410156 514.886719 208.996094 512.800781 207.308594 C 510.714844 205.625 507.898438 205.230469 505.226562 205.011719 C 495.9375 204.238281 486.59375 204.75 477.285156 205.257812 C 459.09375 206.257812 440.898438 207.253906 422.703125 208.253906 C 419.042969 208.453125 414.8125 208.148438 411.453125 209.398438 C 408.609375 210.457031 406.589844 212.398438 403.335938 213.082031 C 397.332031 214.34375 390.726562 213.488281 385.292969 216.863281 Z M 385.292969 216.863281 "
       style=" stroke:none;fill-rule:nonzero;fill:rgb(24.705882%,23.921569%,33.72549%);fill-opacity:1;" />
    <path
       id="path41"
       d="M 485.617188 261.160156 C 485.046875 261.070312 484.460938 261.203125 483.988281 261.53125 C 483.671875 261.878906 483.484375 262.320312 483.457031 262.789062 C 483.09375 264.851562 483.523438 266.976562 484.660156 268.734375 C 485.839844 270.492188 487.878906 271.46875 489.988281 271.289062 C 492.507812 270.96875 494.367188 268.816406 496.6875 267.765625 C 500.257812 266.148438 515.433594 263.625 504.9375 257.949219 C 501.320312 255.996094 498.980469 257.722656 496.128906 259.007812 C 492.886719 260.667969 489.25 261.414062 485.617188 261.160156 Z M 485.617188 261.160156 "
       style=" stroke:none;fill-rule:nonzero;fill:rgb(24.705882%,23.921569%,33.72549%);fill-opacity:1;" />
    <path
       id="path43"
       d="M 577.554688 213.660156 C 576.328125 214.160156 575.300781 215.054688 574.636719 216.199219 C 574 217.40625 574.425781 218.902344 575.597656 219.597656 C 576.054688 219.765625 576.542969 219.84375 577.027344 219.824219 L 582.011719 219.976562 C 584.128906 220.039062 586.773438 220.488281 587.34375 222.53125 C 587.765625 224.046875 586.820312 225.996094 587.960938 227.078125 C 588.449219 227.457031 589.039062 227.6875 589.65625 227.742188 C 591.296875 228.164062 593.011719 228.21875 594.675781 227.902344 C 598.300781 226.929688 596.398438 224.714844 597.539062 222.742188 C 599.285156 219.726562 598.984375 221.550781 602.0625 219.824219 C 604.335938 218.546875 607.273438 216.230469 605.378906 212.972656 C 602.078125 207.3125 582.421875 211.226562 577.554688 213.660156 Z M 577.554688 213.660156 "
       style=" stroke:none;fill-rule:nonzero;fill:rgb(24.705882%,23.921569%,33.72549%);fill-opacity:1;" />
    <path
       id="path45"
       d="M 675.917969 210.8125 L 673.023438 211.199219 C 666.496094 212.070312 659.933594 212.949219 653.648438 214.910156 C 656.371094 215.988281 659.226562 216.6875 662.132812 216.996094 C 663.734375 217.074219 665.328125 217.300781 666.886719 217.671875 C 669.664062 218.5 672.460938 220.632812 675.140625 219.539062 C 676.804688 218.863281 677.347656 217.128906 678.726562 216.210938 C 679.675781 215.578125 683.285156 214.550781 683.6875 213.910156 C 686.949219 208.734375 678.421875 210.480469 675.917969 210.8125 Z M 675.917969 210.8125 "
       style=" stroke:none;fill-rule:nonzero;fill:rgb(24.705882%,23.921569%,33.72549%);fill-opacity:1;" />
    <path
       id="path47"
       d="M 688.625 223.976562 C 684.757812 226.136719 681.171875 228.765625 677.945312 231.800781 C 676.585938 233.082031 675.195312 234.671875 675.320312 236.535156 C 675.484375 239.011719 678.121094 240.449219 680.402344 241.417969 L 689.65625 245.335938 C 690.777344 243.753906 689.75 241.566406 688.589844 240.011719 C 687.429688 238.457031 686.050781 236.65625 686.566406 234.785156 C 687.148438 232.648438 689.753906 231.921875 691.933594 231.550781 C 695.492188 230.953125 705.082031 231 703.929688 225.265625 C 702.574219 218.507812 692.195312 221.980469 688.625 223.976562 Z M 688.625 223.976562 "
       style=" stroke:none;fill-rule:nonzero;fill:rgb(24.705882%,23.921569%,33.72549%);fill-opacity:1;" />
    <path
       id="path49"
       d="M 686.765625 606.398438 C 685.882812 608.949219 685.800781 611.957031 687.324219 614.183594 C 689.03125 616.683594 692.453125 617.617188 695.414062 616.980469 C 698.359375 616.195312 700.988281 614.507812 702.925781 612.148438 C 704.695312 610.171875 706.152344 607.9375 707.246094 605.519531 C 708.769531 601.75 709.84375 597.8125 710.449219 593.792969 L 713.320312 578.699219 C 713.960938 575.328125 713.9375 564.988281 707.742188 568.355469 C 706.050781 569.277344 702.132812 576.542969 700.359375 578.605469 C 697.160156 582.316406 696.738281 585.921875 695.054688 590.421875 C 692.949219 596.058594 688.710938 600.753906 686.765625 606.398438 Z M 686.765625 606.398438 "
       style=" stroke:none;fill-rule:nonzero;fill:rgb(24.705882%,23.921569%,33.72549%);fill-opacity:1;" />
    <path
       id="path51"
       d="M 1013.949219 683.628906 C 1011.921875 682.839844 1009.957031 681.902344 1008.0625 680.824219 C 1006.164062 686.046875 1005.15625 691.546875 1005.078125 697.101562 L 1018.949219 689.246094 C 1021.035156 688.066406 1023.402344 686.421875 1023.355469 684.023438 C 1023.394531 683.421875 1023.101562 682.84375 1022.589844 682.523438 C 1022.28125 682.398438 1021.945312 682.359375 1021.617188 682.40625 C 1019.558594 682.578125 1017.683594 683.59375 1015.746094 684.296875 C 1013.804688 685 1011.535156 685.375 1009.753906 684.328125 "
       style=" stroke:none;fill-rule:nonzero;fill:rgb(24.705882%,23.921569%,33.72549%);fill-opacity:1;" />
    <path
       id="path53"
       d="M 1087.117188 688.292969 C 1085.597656 688.707031 1084.109375 689.242188 1082.671875 689.890625 C 1079.488281 691.511719 1077.324219 694.589844 1074.457031 696.722656 C 1071.71875 698.765625 1068.417969 699.890625 1065.179688 700.980469 C 1064.226562 701.820312 1064.664062 703.519531 1065.699219 704.261719 C 1066.808594 704.894531 1068.085938 705.179688 1069.359375 705.085938 C 1072.726562 705.160156 1076.269531 705.191406 1079.21875 703.566406 C 1080.878906 702.484375 1082.433594 701.25 1083.859375 699.878906 C 1087.304688 697 1091.445312 695.101562 1095.542969 693.265625 C 1097.03125 692.703125 1098.410156 691.878906 1099.613281 690.832031 C 1102.1875 688.292969 1102.367188 684.375 1098.65625 683.511719 C 1095.65625 682.816406 1089.976562 687.367188 1087.117188 688.292969 Z M 1087.117188 688.292969 "
       style=" stroke:none;fill-rule:nonzero;fill:rgb(24.705882%,23.921569%,33.72549%);fill-opacity:1;" />
    <path
       id="path55"
       d="M 1119.449219 667.160156 C 1119.785156 663.621094 1118.480469 660.121094 1115.90625 657.671875 C 1115.871094 661.167969 1115.765625 664.890625 1113.800781 667.777344 C 1112.402344 669.835938 1110.207031 671.226562 1108.675781 673.1875 C 1107.140625 675.148438 1106.460938 678.257812 1108.257812 679.980469 C 1109.40625 680.855469 1110.808594 681.335938 1112.253906 681.355469 C 1115.832031 681.777344 1119.976562 682.011719 1122.484375 679.425781 C 1123.855469 678.011719 1124.523438 675.921875 1126.191406 674.882812 C 1126.816406 674.621094 1127.371094 674.222656 1127.820312 673.714844 C 1128.511719 672.617188 1127.414062 671.171875 1126.179688 670.777344 C 1124.945312 670.382812 1123.585938 670.566406 1122.34375 670.191406 C 1121.105469 669.816406 1119.964844 668.417969 1120.601562 667.289062 "
       style=" stroke:none;fill-rule:nonzero;fill:rgb(24.705882%,23.921569%,33.72549%);fill-opacity:1;" />
    <path
       id="path57"
       d="M 1061.988281 539.042969 C 1060.109375 539.5 1058.167969 539.617188 1056.246094 539.382812 C 1053.0625 538.796875 1050.582031 536.394531 1048.007812 534.421875 C 1041.890625 529.761719 1034.457031 527.164062 1026.773438 526.996094 C 1019.78125 526.863281 1012.726562 528.761719 1005.859375 527.4375 C 1006.308594 529.933594 1008.445312 531.808594 1010.722656 532.921875 C 1013 534.035156 1015.515625 534.59375 1017.804688 535.683594 C 1021.46875 537.449219 1024.375 540.476562 1025.992188 544.210938 C 1026.730469 545.933594 1027.191406 547.808594 1028.308594 549.3125 C 1030.59375 552.382812 1034.917969 553.058594 1038.738281 552.808594 C 1043.714844 552.480469 1048.914062 551.046875 1053.546875 552.902344 C 1057.089844 554.324219 1059.625 557.425781 1062.582031 559.839844 C 1065.539062 562.253906 1069.707031 564.042969 1073.105469 562.300781 C 1065.863281 559.957031 1060.984375 553.167969 1061.070312 545.550781 C 1064.402344 545.859375 1073.996094 545.742188 1073.480469 540.074219 C 1073.042969 535.273438 1064.851562 538.527344 1061.988281 539.042969 Z M 1061.988281 539.042969 "
       style=" stroke:none;fill-rule:nonzero;fill:rgb(24.705882%,23.921569%,33.72549%);fill-opacity:1;" />
    <path
       id="path59"
       d="M 1018.40625 578.105469 C 1018.996094 574.859375 1022.234375 571.992188 1021.226562 568.851562 C 1020.527344 566.675781 1018.011719 565.605469 1015.730469 565.550781 C 1013.449219 565.496094 1011.210938 566.175781 1008.929688 566.242188 C 1007.445312 566.160156 1005.960938 566.183594 1004.476562 566.304688 C 999.953125 567.046875 997.164062 571.796875 992.898438 573.484375 C 990.304688 574.507812 987.390625 574.3125 984.695312 575.023438 C 978.574219 576.632812 974.699219 582.421875 970.417969 587.089844 C 963.503906 594.597656 954.496094 599.855469 944.5625 602.183594 C 941.078125 602.988281 937.335938 603.503906 934.570312 605.765625 C 930.90625 608.761719 930.003906 613.898438 929.191406 618.5625 C 926.9375 631.445312 923.496094 644.089844 918.90625 656.335938 L 933.445312 658.191406 C 936.207031 658.546875 939.074219 658.890625 941.734375 658.070312 C 943.671875 657.339844 945.503906 656.363281 947.1875 655.164062 C 953.664062 651.140625 960.910156 648.523438 968.460938 647.480469 C 972.265625 646.957031 976.257812 646.863281 979.828125 648.277344 C 983.402344 649.695312 986.46875 652.90625 986.765625 656.738281 C 989.914062 655.761719 993.347656 656.59375 995.691406 658.914062 C 997.96875 661.234375 999.460938 664.210938 999.953125 667.425781 C 1000.335938 669.417969 1000.71875 671.800781 1002.566406 672.636719 C 1004.070312 673.316406 1005.796875 672.582031 1007.445312 672.453125 C 1013.035156 672.003906 1017.671875 678.527344 1023.164062 677.402344 C 1029.058594 676.199219 1030.503906 667.367188 1036.25 665.597656 C 1039.550781 664.582031 1044.183594 665.820312 1045.761719 662.746094 C 1047.15625 660.039062 1044.378906 656.910156 1044.664062 653.878906 C 1045.015625 650.144531 1049.417969 648.558594 1052.8125 646.964844 C 1064.511719 641.472656 1070.0625 625.714844 1064.394531 614.09375 C 1061.035156 607.207031 1054.425781 601.789062 1053.203125 594.222656 C 1052.265625 588.40625 1054.558594 581.617188 1050.851562 577.039062 C 1048.964844 574.707031 1045.769531 573.421875 1044.648438 570.640625 C 1043.941406 568.890625 1044.226562 566.902344 1043.84375 565.054688 C 1043.464844 563.207031 1041.851562 561.273438 1040.027344 561.75 C 1034.734375 563.140625 1033.042969 579.515625 1030.207031 583.492188 C 1025.898438 589.539062 1017.046875 585.558594 1018.40625 578.105469 Z M 1018.40625 578.105469 "
       style=" stroke:none;fill-rule:nonzero;fill:rgb(24.705882%,23.921569%,33.72549%);fill-opacity:1;" />
    <path
       id="path61"
       d="M 920.515625 545.230469 C 918.707031 544.722656 916.730469 544.222656 914.996094 544.949219 C 913.261719 545.671875 912.25 548.222656 913.640625 549.484375 C 924.527344 549.0625 935.484375 548.640625 946.277344 550.121094 C 958.71875 551.824219 971.027344 556.046875 983.519531 554.804688 C 976.382812 552.699219 969.128906 551.015625 961.796875 549.761719 L 949.566406 547.421875 C 946.285156 546.734375 942.96875 546.222656 939.632812 545.886719 C 932.65625 545.308594 927.375 547.15625 920.515625 545.230469 Z M 920.515625 545.230469 "
       style=" stroke:none;fill-rule:nonzero;fill:rgb(24.705882%,23.921569%,33.72549%);fill-opacity:1;" />
    <path
       id="path63"
       d="M 931.414062 507.28125 C 930.511719 507.203125 929.390625 507.140625 928.925781 507.917969 C 928.476562 508.660156 928.988281 509.640625 928.75 510.476562 C 928.421875 511.613281 926.929688 511.90625 925.757812 511.75 C 924.582031 511.59375 923.3125 511.222656 922.273438 511.789062 C 921.191406 512.53125 920.726562 513.898438 921.132812 515.144531 C 921.558594 516.351562 922.246094 517.449219 923.144531 518.359375 C 924.683594 520.296875 926.4375 522.054688 928.371094 523.601562 C 932.113281 526.367188 937.183594 527.699219 939.539062 531.710938 C 939.871094 532.488281 940.382812 533.175781 941.03125 533.71875 C 942.160156 534.4375 943.636719 533.890625 944.855469 533.335938 L 949.125 531.382812 C 949.894531 531.105469 950.582031 530.636719 951.121094 530.023438 C 952.097656 528.699219 951.5 526.8125 950.679688 525.386719 C 949.859375 523.960938 948.8125 522.484375 948.988281 520.847656 C 949.300781 517.929688 953.050781 516.8125 954.589844 514.316406 C 956.144531 511.800781 955.132812 508.558594 955.3125 505.605469 C 955.523438 502.15625 957.691406 497.664062 954.203125 495.085938 C 951.238281 492.890625 948.40625 494.917969 946.277344 497.335938 C 941.789062 502.441406 939.667969 507.96875 931.414062 507.28125 Z M 931.414062 507.28125 "
       style=" stroke:none;fill-rule:nonzero;fill:rgb(24.705882%,23.921569%,33.72549%);fill-opacity:1;" />
    <path
       id="path65"
       d="M 957.335938 455.691406 C 958.796875 458.488281 961.835938 460.152344 963.425781 462.875 C 965.148438 465.824219 964.949219 469.632812 966.820312 472.492188 C 968.738281 475.421875 972.597656 476.980469 973.675781 480.316406 C 974.847656 483.957031 972.183594 488.382812 974.308594 491.566406 C 975.109375 492.617188 976.3125 493.285156 977.628906 493.40625 C 978.945312 493.527344 980.25 493.089844 981.230469 492.203125 C 983.089844 490.171875 983 487.027344 981.019531 485.113281 C 979.761719 483.964844 977.957031 483.46875 976.90625 482.128906 C 976.359375 481.355469 975.996094 480.46875 975.839844 479.535156 C 975.269531 476.835938 975.359375 474.042969 976.109375 471.390625 C 976.390625 470.714844 976.460938 469.972656 976.3125 469.257812 C 975.839844 467.882812 973.980469 467.785156 972.675781 467.148438 C 969.707031 465.699219 969.78125 461.511719 970.296875 458.25 C 969.953125 460.421875 962.226562 456.726562 961.414062 455.496094 C 959.808594 453.054688 960.683594 448.339844 960.363281 445.640625 C 956.894531 447.3125 955.554688 452.277344 957.335938 455.691406 Z M 957.335938 455.691406 "
       style=" stroke:none;fill-rule:nonzero;fill:rgb(24.705882%,23.921569%,33.72549%);fill-opacity:1;" />
    <path
       id="path67"
       d="M 879.472656 498.675781 C 878.046875 497.078125 875.894531 495.40625 873.984375 496.367188 C 872.523438 497.105469 872.125 499.125 872.695312 500.65625 C 873.390625 502.144531 874.464844 503.421875 875.808594 504.367188 C 879.792969 507.660156 884.085938 510.628906 887.5625 514.453125 C 893.785156 521.292969 897.082031 530.527344 903.847656 536.832031 C 905.207031 538.292969 907.007812 539.269531 908.976562 539.609375 C 910.949219 539.792969 913.160156 538.53125 913.386719 536.5625 C 913.574219 534.941406 912.445312 533.488281 911.339844 532.289062 C 908.710938 529.425781 905.835938 526.792969 903.351562 523.800781 C 902.207031 522.652344 901.484375 521.148438 901.3125 519.535156 C 901.296875 517.925781 902.765625 516.238281 904.324219 516.636719 C 902.429688 516.152344 901.023438 512.992188 898.242188 512.398438 C 895.914062 511.902344 895.351562 513.34375 892.585938 512.15625 C 887.308594 509.890625 883.167969 502.816406 879.472656 498.675781 Z M 879.472656 498.675781 "
       style=" stroke:none;fill-rule:nonzero;fill:rgb(24.705882%,23.921569%,33.72549%);fill-opacity:1;" />
    <path
       id="path69"
       d="M 1003.480469 343.058594 C 1001.964844 342.609375 1000.476562 342.078125 999.019531 341.464844 C 995.101562 340.289062 989.917969 343.171875 990.441406 347.230469 C 990.785156 349.929688 993.296875 351.75 994.679688 354.089844 C 996.738281 357.558594 996.1875 361.960938 995.109375 365.847656 C 994.84375 367.050781 994.339844 368.1875 993.625 369.195312 C 992.628906 370.253906 991.4375 371.113281 990.113281 371.722656 C 984.824219 374.691406 980.15625 378.660156 976.371094 383.40625 C 975.960938 383.84375 975.675781 384.382812 975.542969 384.96875 C 975.355469 386.339844 976.734375 387.339844 977.511719 388.484375 C 979.242188 391.023438 977.992188 394.441406 978.164062 397.511719 C 978.109375 398.394531 978.515625 399.242188 979.238281 399.75 C 980.277344 400.28125 981.515625 399.378906 982.078125 398.355469 C 983.953125 394.957031 982.542969 389.5 986.058594 387.859375 C 986.726562 387.550781 987.53125 387.417969 987.976562 386.835938 C 988.679688 385.90625 988 384.53125 988.355469 383.421875 C 988.894531 381.757812 991.167969 381.683594 992.914062 381.757812 C 995.925781 381.882812 998.929688 381.484375 1001.800781 380.574219 C 1002.929688 380.304688 1003.953125 379.710938 1004.746094 378.867188 C 1005.796875 377.554688 1005.703125 375.6875 1005.492188 374.019531 C 1004.441406 365.695312 1001.804688 357.648438 997.730469 350.316406 C 1000.820312 350.710938 1004.183594 351.054688 1006.847656 349.441406 C 1008.339844 348.539062 1010.132812 345.839844 1009.390625 344.003906 C 1008.21875 341.101562 1006.105469 343.542969 1003.480469 343.058594 Z M 1003.480469 343.058594 "
       style=" stroke:none;fill-rule:nonzero;fill:rgb(24.705882%,23.921569%,33.72549%);fill-opacity:1;" />
    <path
       id="path71"
       d="M 607.363281 388.839844 C 607.730469 390.824219 608.09375 392.914062 607.445312 394.824219 C 606.796875 396.734375 604.75 398.332031 602.820312 397.746094 C 601.320312 397.292969 600.457031 395.785156 599.390625 394.636719 C 593.476562 388.242188 580.125 391.945312 576.472656 384.035156 C 574.980469 380.808594 575.992188 376.941406 574.976562 373.535156 C 573.65625 369.484375 569.765625 366.839844 565.515625 367.105469 C 563.632812 367.375 561.800781 367.925781 560.074219 368.730469 C 548.519531 373.363281 536.386719 376.398438 524.011719 377.757812 C 521.660156 377.898438 519.332031 378.324219 517.082031 379.019531 C 512 380.863281 508.527344 385.574219 506.058594 390.386719 C 503.585938 395.195312 501.765625 400.40625 498.453125 404.679688 C 494.96875 409.171875 490.09375 412.316406 485.542969 415.71875 C 483.789062 416.847656 482.328125 418.378906 481.28125 420.183594 C 480.296875 422.210938 480.351562 424.570312 480.429688 426.820312 L 481.359375 454.1875 C 481.476562 457.707031 481.628906 461.351562 483.203125 464.503906 C 485.167969 468.4375 489.050781 471.011719 491.746094 474.488281 C 494.496094 478.058594 495.925781 482.46875 495.800781 486.976562 C 495.742188 488.789062 495.5625 490.929688 496.972656 492.070312 C 497.828125 492.625 498.832031 492.914062 499.855469 492.898438 L 536.847656 495.929688 C 543.351562 496.460938 550.5625 497.335938 554.8125 502.296875 C 556.816406 504.640625 558.429688 508.007812 561.5 508.257812 C 562.816406 508.367188 564.097656 507.824219 565.414062 507.71875 C 568.738281 507.457031 571.660156 509.980469 573.503906 512.761719 C 576.292969 517 577.558594 522.0625 577.09375 527.117188 C 576.789062 530.289062 575.808594 533.375 575.597656 536.554688 C 574.789062 548.652344 585.039062 559.164062 585.238281 571.285156 C 585.355469 578.417969 581.972656 585.082031 578.671875 591.402344 C 583.996094 599.472656 579.636719 610.21875 581.757812 619.652344 C 583.765625 628.605469 591.222656 635.613281 593.082031 644.59375 C 593.933594 648.707031 593.980469 653.769531 597.605469 655.886719 C 599.195312 656.660156 600.957031 657.015625 602.722656 656.914062 C 613.375 657.039062 623.90625 654.640625 633.453125 649.910156 C 637.933594 647.6875 642.578125 644.363281 643.359375 639.417969 C 643.992188 635.433594 641.972656 630.972656 644.027344 627.5 C 646.449219 623.40625 652.660156 623.730469 656.226562 620.582031 C 662.007812 615.476562 657.5 605.742188 659.84375 598.386719 C 661.949219 591.777344 669.203125 588.265625 672.796875 582.332031 C 674.210938 579.78125 675.226562 577.027344 675.808594 574.167969 C 677.453125 567.332031 678.480469 560.363281 678.871094 553.34375 C 678.964844 549.078125 679.28125 544.820312 679.8125 540.589844 C 683.6875 516.492188 707.492188 500.355469 715.222656 477.207031 C 715.960938 474.996094 716.304688 472.050781 714.339844 470.796875 C 713.175781 470.242188 711.851562 470.105469 710.597656 470.40625 L 693.546875 472.558594 C 691.429688 472.824219 689.183594 473.074219 687.238281 472.195312 C 685.292969 471.3125 683.898438 468.851562 684.929688 466.980469 C 687.828125 461.730469 681.871094 455.097656 679.222656 449.71875 C 672.09375 435.230469 663.605469 421.453125 653.871094 408.574219 C 653.25 407.914062 652.859375 407.066406 652.761719 406.160156 L 657.601562 406.324219 C 655.96875 400.457031 653.269531 394.035156 647.578125 391.890625 C 644.367188 390.679688 640.8125 391.097656 637.390625 391.285156 C 627.582031 391.824219 617.070312 390.339844 607.363281 388.839844 Z M 607.363281 388.839844 "
       style=" stroke:none;fill-rule:nonzero;fill:rgb(24.705882%,23.921569%,33.72549%);fill-opacity:1;" />
    <path
       id="path73"
       d="M 637.398438 256.640625 C 639.964844 259.367188 642.839844 262.261719 646.550781 262.734375 C 653.109375 263.574219 657.828125 256.789062 660.828125 250.894531 C 661.058594 254.019531 663.734375 256.390625 666.863281 256.246094 C 668.480469 255.972656 670.027344 255.371094 671.402344 254.46875 C 684.394531 247.363281 698.949219 243.597656 713.757812 243.511719 C 713.460938 241.1875 714.96875 239.015625 717.25 238.480469 C 720.261719 237.882812 722.972656 240.488281 724.425781 243.195312 C 725.878906 245.898438 726.78125 249.035156 729.089844 251.0625 C 731.398438 253.085938 735.863281 253 736.777344 250.066406 C 737.652344 247.25 734.71875 244.847656 732.285156 243.1875 C 729.847656 241.527344 727.28125 238.457031 728.921875 236.007812 C 741.363281 233.25 753.882812 230.484375 766.613281 229.9375 C 768.78125 230.011719 770.941406 229.640625 772.957031 228.84375 C 774.898438 227.886719 776.441406 225.722656 775.921875 223.625 C 770.238281 224.960938 764.3125 222.722656 760.925781 217.964844 C 778.59375 216.503906 797.382812 215.261719 813.035156 223.582031 C 814.914062 227.617188 805.339844 230.972656 807.902344 234.613281 C 808.71875 235.777344 810.355469 235.910156 811.777344 235.9375 C 822.65625 236.140625 833.597656 236.339844 844.351562 234.695312 C 848.285156 234.09375 852.253906 233.246094 856.199219 233.734375 C 862.773438 234.542969 868.394531 238.933594 874.863281 240.363281 C 877.496094 240.949219 880.445312 240.96875 882.664062 239.433594 C 884.882812 237.902344 885.835938 234.414062 884.019531 232.421875 C 890.109375 226.449219 900.214844 227.929688 908.246094 230.789062 C 916.277344 233.648438 923.890625 238.261719 932.390625 238.898438 C 938.488281 239.355469 944.667969 237.714844 950.691406 238.757812 C 954.476562 239.410156 958 241.097656 961.703125 242.132812 C 968.699219 244.089844 976.101562 243.675781 983.367188 243.773438 C 1001.90625 244.023438 1020.242188 247.667969 1037.464844 254.53125 C 1039.707031 255.257812 1041.761719 256.472656 1043.480469 258.085938 C 1045.082031 259.804688 1045.898438 262.472656 1044.824219 264.558594 L 1027.023438 261.957031 C 1028.699219 265.261719 1033.039062 265.824219 1036.5625 266.964844 C 1040.085938 268.105469 1043.738281 271.996094 1041.621094 275.039062 C 1037.804688 273.820312 1034.34375 277.640625 1032.417969 281.15625 C 1030.488281 284.671875 1028.136719 288.878906 1024.136719 289.09375 C 1020.554688 289.285156 1016.222656 286.230469 1013.886719 288.957031 C 1017.113281 293.03125 1019.875 297.449219 1022.125 302.136719 C 1024.429688 306.945312 1026.074219 313.007812 1022.957031 317.332031 C 1022.464844 318.105469 1021.71875 318.683594 1020.851562 318.96875 C 1018.304688 319.613281 1016.648438 316.496094 1014.824219 314.605469 C 1012.523438 312.222656 1009.042969 311.550781 1005.925781 310.433594 C 1002.808594 309.316406 999.523438 307.117188 999.28125 303.816406 C 999.128906 301.757812 1000.214844 299.847656 1001.011719 297.949219 C 1002.355469 294.746094 1002.941406 291.277344 1002.730469 287.8125 C 1002.554688 285.023438 1001.773438 282.121094 999.773438 280.175781 C 997.769531 278.226562 994.316406 277.609375 992.167969 279.390625 C 991.164062 280.226562 990.363281 281.558594 989.058594 281.605469 C 986.761719 281.695312 984.992188 277.683594 983.144531 279.050781 C 983.359375 280.511719 983.058594 282 982.289062 283.261719 C 976.765625 288.066406 968.285156 286.03125 961.164062 287.730469 C 957.78125 288.699219 954.539062 290.117188 951.527344 291.941406 C 950.402344 292.425781 949.441406 293.230469 948.773438 294.257812 C 947.882812 295.984375 948.863281 298.199219 950.429688 299.347656 C 952.089844 300.367188 953.957031 301.003906 955.894531 301.214844 C 964.574219 302.859375 973.378906 305.40625 980.230469 310.984375 C 987.082031 316.5625 991.578125 325.785156 989.410156 334.351562 L 972.292969 317.988281 C 972.945312 324.859375 973.3125 331.75 973.398438 338.660156 C 973.511719 340.007812 973.324219 341.363281 972.859375 342.636719 C 971.636719 345.332031 968.332031 346.238281 965.433594 346.835938 C 963.800781 347.144531 962.382812 348.136719 961.53125 349.5625 C 960.675781 350.984375 960.472656 352.707031 960.96875 354.292969 C 961.996094 357.648438 964.566406 360.269531 966.914062 362.878906 C 969.265625 365.488281 971.578125 368.453125 971.886719 371.949219 C 972.195312 375.449219 969.554688 379.394531 966.054688 379.152344 C 963.398438 378.96875 961.429688 376.589844 960.296875 374.179688 C 959.164062 371.769531 958.492188 369.085938 956.789062 367.035156 C 951.640625 360.839844 940.074219 363.496094 935.460938 356.886719 C 933.070312 359.601562 932.253906 363.359375 933.304688 366.824219 C 935.449219 365.476562 938.386719 366.726562 940 368.679688 C 941.613281 370.632812 942.375 373.140625 943.640625 375.332031 C 945.347656 378.292969 948.066406 380.917969 948.308594 384.328125 C 948.242188 385.621094 948.265625 386.910156 948.371094 388.199219 C 948.796875 390.265625 950.542969 391.75 951.75 393.476562 C 954.566406 397.496094 954.429688 403.019531 952.613281 407.578125 C 950.796875 412.140625 947.539062 415.949219 944.308594 419.644531 C 938.667969 426.097656 932.910156 432.511719 926.222656 437.871094 C 924.3125 439.402344 922.277344 440.902344 921.089844 443.042969 C 919.898438 445.179688 919.839844 448.179688 921.664062 449.808594 C 920.359375 449.871094 918.015625 450.515625 916.707031 450.582031 C 916.25 445.335938 916.148438 440.0625 916.410156 434.804688 C 911.25 432.324219 905.699219 438.960938 906.363281 444.648438 C 907.03125 450.335938 911.140625 454.898438 914.066406 459.816406 C 916.207031 463.414062 917.796875 467.609375 917.082031 471.734375 C 916.367188 475.859375 912.6875 479.664062 908.519531 479.300781 C 901.890625 478.722656 899.117188 469.199219 892.550781 468.109375 C 891.972656 467.972656 891.367188 468.035156 890.824219 468.28125 C 889.851562 468.816406 889.679688 470.121094 889.625 471.230469 C 889.359375 476.683594 889.125 482.355469 891.253906 487.382812 C 894.363281 494.738281 902.402344 500.914062 900.71875 508.722656 C 891.632812 504.496094 886.910156 494.300781 884.765625 484.507812 C 882.621094 474.714844 882.261719 464.433594 878.417969 455.175781 C 875.5 458.921875 869.363281 455.824219 866.695312 451.898438 C 864.167969 448.171875 862.613281 443.867188 860.160156 440.089844 C 857.703125 436.316406 853.945312 432.9375 849.453125 432.730469 C 844.742188 432.511719 840.65625 435.75 837.0625 438.804688 C 834.105469 441.320312 831.070312 443.933594 829.34375 447.410156 C 826.832031 452.464844 827.488281 458.429688 827.367188 464.074219 C 827.234375 470.179688 825.941406 476.621094 821.785156 481.089844 C 817.628906 485.5625 809.953125 487.117188 805.367188 483.089844 C 802.972656 480.988281 801.8125 477.84375 800.78125 474.828125 C 795.804688 460.292969 791.65625 445.480469 788.363281 430.472656 C 787.59375 433.898438 784.585938 438.3125 781.714844 436.296875 C 781.070312 435.753906 780.550781 435.078125 780.183594 434.320312 C 774.828125 425.234375 764.90625 419.785156 754.886719 416.515625 C 744.863281 413.25 734.316406 411.726562 724.40625 408.132812 C 718.851562 406.121094 713.546875 403.476562 708.59375 400.253906 C 706.023438 404.035156 705.730469 408.921875 707.835938 412.980469 C 710.03125 416.878906 715.007812 419.132812 719.265625 417.769531 C 721.46875 417.066406 723.328125 415.539062 725.511719 414.78125 C 727.695312 414.027344 730.625 414.398438 731.578125 416.503906 C 732.492188 418.519531 731.113281 420.957031 731.796875 423.0625 C 732.839844 426.265625 737.671875 426.511719 739.359375 429.429688 C 740.617188 431.597656 739.582031 434.480469 737.789062 436.230469 C 735.996094 437.984375 733.601562 438.941406 731.410156 440.160156 C 724.304688 444.117188 719.25 450.867188 713.039062 456.121094 C 706.828125 461.371094 698.066406 465.207031 690.664062 461.839844 C 692.429688 452.898438 681.785156 446.332031 679.828125 437.433594 C 679.183594 434.503906 679.519531 431.390625 678.597656 428.535156 C 677.265625 424.402344 673.601562 421.5625 670.597656 418.429688 C 663.230469 410.671875 659.308594 400.261719 659.722656 389.570312 C 659.886719 385.890625 660.5625 382.152344 659.722656 378.566406 C 658.886719 374.980469 655.921875 371.511719 652.246094 371.671875 C 643.851562 372.042969 633.273438 372.667969 628.867188 365.507812 C 627.296875 362.953125 626.613281 359.207031 628.886719 357.25 C 630.488281 355.867188 632.855469 356 634.960938 356.207031 L 653.875 358.066406 C 658.300781 358.503906 663.082031 358.863281 666.878906 356.546875 C 670.675781 354.234375 672.320312 348.089844 668.804688 345.367188 C 666.238281 343.378906 661.636719 343.484375 660.886719 340.320312 C 660.265625 337.6875 663.179688 334.699219 661.605469 332.496094 C 660.476562 330.917969 657.941406 331.355469 656.402344 332.539062 C 654.867188 333.722656 653.75 335.453125 652.03125 336.347656 C 649.011719 337.921875 645.40625 336.425781 642.160156 335.40625 C 638.910156 334.390625 634.558594 334.304688 632.984375 337.324219 C 631.222656 340.699219 634.546875 345.121094 632.796875 348.503906 C 630.484375 352.976562 622.660156 350.429688 619.414062 354.277344 C 615.6875 358.691406 621.945312 365.273438 620.691406 370.914062 C 617.429688 372.527344 613.558594 372.3125 610.496094 370.339844 C 607.480469 368.285156 605.835938 364.742188 606.21875 361.113281 C 606.527344 358.574219 607.847656 355.988281 606.964844 353.589844 C 606.25 351.652344 604.304688 350.496094 602.496094 349.496094 L 584.113281 339.332031 C 582.410156 342.5 584.566406 346.429688 587.265625 348.808594 C 589.960938 351.1875 593.34375 352.980469 595.113281 356.113281 C 597.441406 360.617188 595.863281 366.15625 591.511719 368.75 C 590.976562 369.117188 590.3125 369.234375 589.6875 369.070312 C 589.09375 368.71875 588.667969 368.148438 588.507812 367.480469 C 585.261719 359.171875 580.394531 350.984375 572.609375 346.644531 C 564.824219 342.304688 553.636719 343.199219 548.53125 350.507812 C 547.320312 352.242188 546.507812 354.222656 545.449219 356.058594 C 539.839844 365.808594 527.808594 370.425781 516.566406 370.125 C 515.464844 370.183594 514.371094 369.929688 513.414062 369.382812 C 511.597656 368.128906 511.679688 365.464844 511.957031 363.273438 L 513.136719 353.96875 C 513.375 352.101562 513.71875 350.039062 515.195312 348.871094 C 517.277344 347.226562 520.28125 348.265625 522.933594 348.226562 C 527.050781 348.035156 530.605469 345.289062 531.835938 341.351562 C 532.925781 337.398438 531.742188 333.164062 528.757812 330.351562 C 527.542969 329.210938 525.910156 327.777344 526.554688 326.234375 C 527.074219 325.371094 527.945312 324.785156 528.9375 324.628906 C 533.703125 323.242188 538.734375 322.878906 543.421875 321.246094 C 548.105469 319.613281 552.648438 316.273438 553.753906 311.433594 C 554.097656 309.949219 554.25 308.15625 555.582031 307.417969 C 556.25 307.136719 556.964844 306.992188 557.691406 306.988281 C 562.953125 306.238281 566.777344 301.59375 566.496094 296.277344 C 568.742188 294.707031 571.886719 295.863281 574.058594 297.53125 C 576.230469 299.203125 578.148438 301.410156 580.789062 302.128906 C 585.714844 303.46875 590.472656 299.105469 595.578125 299.085938 C 597.722656 299.078125 599.945312 299.835938 601.964844 299.109375 C 604.011719 298.371094 605.234375 296.332031 606.804688 294.824219 C 608.375 293.320312 611.132812 292.398438 612.582031 294.023438 L 611.347656 284.867188 C 616.378906 286.136719 621.71875 285.171875 625.988281 282.21875 L 610.019531 276.820312 C 609.464844 276.679688 608.953125 276.40625 608.527344 276.019531 C 607.367188 274.769531 608.519531 272.820312 609.464844 271.398438 C 611.722656 267.996094 612.101562 262.394531 608.386719 260.699219 C 605.855469 259.546875 602.945312 260.933594 600.511719 262.289062 L 588.859375 268.792969 C 588.488281 271.007812 591.199219 272.265625 592.875 273.757812 C 594.957031 275.605469 595.683594 278.542969 594.710938 281.152344 C 593.738281 283.757812 591.265625 285.5 588.484375 285.535156 C 590.039062 287.554688 590.589844 290.175781 589.984375 292.652344 L 582.144531 293.21875 C 581.261719 293.394531 580.347656 293.214844 579.601562 292.722656 C 578.761719 291.976562 578.875 290.671875 578.679688 289.566406 C 578.210938 286.898438 575.601562 285.027344 572.9375 284.546875 C 570.273438 284.066406 567.546875 284.683594 564.910156 285.289062 C 563.789062 285.691406 562.558594 285.664062 561.460938 285.210938 C 560.828125 284.800781 560.351562 284.195312 560.09375 283.484375 C 558.9375 280.679688 560.019531 277.378906 561.875 274.980469 C 563.734375 272.582031 566.277344 270.828125 568.5625 268.828125 C 574.023438 264.035156 578.035156 257.804688 580.144531 250.847656 C 584.460938 249.039062 588.929688 246.578125 593.246094 244.769531 C 599.898438 241.398438 607.359375 239.953125 614.792969 240.59375 L 629.40625 240.871094 C 633.734375 240.953125 638.179688 241.058594 642.179688 242.710938 C 646.183594 244.363281 649.699219 247.933594 649.976562 252.253906 C 650.144531 253.25 649.789062 254.261719 649.039062 254.933594 C 648.472656 255.242188 647.832031 255.386719 647.191406 255.351562 C 643.152344 255.492188 641.433594 256.5 637.398438 256.640625 Z M 637.398438 256.640625 "
       style=" stroke:none;fill-rule:nonzero;fill:rgb(24.705882%,23.921569%,33.72549%);fill-opacity:1;" />
    <path
       id="path75"
       d="M 520.894531 302.484375 C 522.058594 301.378906 522.511719 299.71875 522.0625 298.179688 C 519.226562 297.082031 516.019531 297.691406 513.777344 299.742188 C 512.914062 300.621094 512.167969 301.609375 511.558594 302.679688 C 509.640625 305.816406 507.941406 309.5625 509.054688 313.066406 C 509.234375 313.839844 509.722656 314.503906 510.402344 314.914062 C 510.902344 315.113281 511.4375 315.199219 511.976562 315.160156 C 514.089844 315.15625 516.203125 315.027344 518.304688 314.769531 C 519.59375 314.613281 521.09375 314.25 521.589844 313.046875 C 522.246094 311.46875 520.660156 309.683594 521.121094 308.035156 C 521.425781 307.300781 521.886719 306.640625 522.472656 306.101562 C 523.0625 305.550781 523.359375 304.753906 523.269531 303.953125 C 523.082031 303.179688 521.902344 302.742188 521.476562 303.414062 "
       style=" stroke:none;fill-rule:nonzero;fill:rgb(24.705882%,23.921569%,33.72549%);fill-opacity:1;" />
    <path
       id="path77"
       d="M 531.867188 288.25 C 529.988281 287.816406 528.050781 287.695312 526.132812 287.886719 C 525.707031 287.875 525.285156 287.972656 524.910156 288.164062 C 524.542969 288.4375 524.277344 288.820312 524.15625 289.257812 C 523.316406 291.957031 524.6875 294.847656 527.3125 295.902344 C 528 296.0625 528.660156 296.328125 529.269531 296.691406 C 530.890625 297.949219 529.855469 300.523438 530.164062 302.554688 C 530.507812 304.835938 532.714844 306.753906 532.308594 309.023438 C 531.992188 310.8125 530.082031 312.230469 530.386719 314.023438 C 530.710938 315.898438 533.089844 316.460938 534.988281 316.613281 C 536.085938 316.804688 537.21875 316.675781 538.246094 316.238281 C 539.273438 315.535156 540.007812 314.472656 540.300781 313.261719 C 541.074219 310.949219 541.402344 308.507812 541.261719 306.070312 C 541.253906 304.964844 540.972656 303.875 540.449219 302.898438 C 539.878906 302.125 539.246094 301.398438 538.558594 300.730469 C 534.925781 296.5 538.75 290.1875 531.867188 288.25 Z M 531.867188 288.25 "
       style=" stroke:none;fill-rule:nonzero;fill:rgb(24.705882%,23.921569%,33.72549%);fill-opacity:1;" />
    <use
       id="use79"
       mask="url(#mask0)"
       xlink:href="#surface5" />
    <use
       id="use81"
       mask="url(#mask1)"
       xlink:href="#surface8" />
    <path
       id="path83"
       d="M 230.265625 316.6875 C 230.265625 323.425781 224.808594 328.890625 218.074219 328.890625 C 211.339844 328.890625 205.882812 323.425781 205.882812 316.6875 C 205.882812 309.949219 211.339844 304.488281 218.074219 304.488281 C 224.808594 304.488281 230.265625 309.949219 230.265625 316.6875 Z M 230.265625 316.6875 "
       style=" stroke:none;fill-rule:nonzero;fill:rgb(42.352941%,38.823529%,100%);fill-opacity:1;" />
    <path
       id="path85"
       d="M 340.414062 577.535156 C 340.414062 584.273438 334.953125 589.734375 328.222656 589.734375 C 321.488281 589.734375 316.027344 584.273438 316.027344 577.535156 C 316.027344 570.796875 321.488281 565.332031 328.222656 565.332031 C 334.953125 565.332031 340.414062 570.796875 340.414062 577.535156 Z M 340.414062 577.535156 "
       style=" stroke:none;fill-rule:nonzero;fill:rgb(42.352941%,38.823529%,100%);fill-opacity:1;" />
    <path
       id="path87"
       d="M 807.480469 315.007812 C 807.480469 321.746094 802.023438 327.207031 795.289062 327.207031 C 788.558594 327.207031 783.097656 321.746094 783.097656 315.007812 C 783.097656 308.269531 788.558594 302.804688 795.289062 302.804688 C 802.023438 302.804688 807.480469 308.269531 807.480469 315.007812 Z M 807.480469 315.007812 "
       style=" stroke:none;fill-rule:nonzero;fill:rgb(42.352941%,38.823529%,100%);fill-opacity:1;" />
    <path
       id="path89"
       d="M 1021.890625 619.605469 C 1021.890625 626.34375 1016.429688 631.808594 1009.695312 631.808594 C 1002.964844 631.808594 997.503906 626.34375 997.503906 619.605469 C 997.503906 612.867188 1002.964844 607.40625 1009.695312 607.40625 C 1016.429688 607.40625 1021.890625 612.867188 1021.890625 619.605469 Z M 1021.890625 619.605469 "
       style=" stroke:none;fill-rule:nonzero;fill:rgb(42.352941%,38.823529%,100%);fill-opacity:1;" />
    <path
       id="path91"
       d="M 623.765625 490.023438 C 623.765625 496.761719 618.308594 502.226562 611.574219 502.226562 C 604.839844 502.226562 599.382812 496.761719 599.382812 490.023438 C 599.382812 483.285156 604.839844 477.824219 611.574219 477.824219 C 618.308594 477.824219 623.765625 483.285156 623.765625 490.023438 Z M 623.765625 490.023438 "
       style=" stroke:none;fill-rule:nonzero;fill:rgb(42.352941%,38.823529%,100%);fill-opacity:1;" />
  </g>
</svg>
